<svg xmlns="http://www.w3.org/2000/svg" viewBox="0 0 674 202" width="674" height="202" role="img" aria-label="Zhongshan Chemical logo">
  <title>Zhongshan Chemical</title>
  <g shape-rendering="geometricPrecision">
    <path d="M 83.0 11.0 L 63.0 18.0 L 46.0 28.0 L 26.0 47.0 L 19.0 57.0 L 10.0 77.0 L 7.0 92.0 L 7.0 111.0 L 12.0 133.0 L 17.0 144.0 L 28.0 160.0 L 39.0 171.0 L 51.0 180.0 L 66.0 188.0 L 80.0 192.0 L 83.0 194.0 L 88.0 194.0 L 93.0 196.0 L 102.0 196.0 L 103.0 197.0 L 123.0 197.0 L 148.0 192.0 L 168.0 183.0 L 179.0 176.0 L 198.0 158.0 L 209.0 141.0 L 214.0 129.0 L 218.0 111.0 L 218.0 104.0 L 113.0 104.0 L 111.0 102.0 L 111.0 8.0 L 100.0 8.0 Z" fill="#008C45" fill-rule="evenodd" clip-rule="evenodd"/>
    <path d="M 120.0 82.0 L 120.0 93.0 L 121.0 94.0 L 216.0 94.0 L 216.0 82.0 L 215.0 81.0 L 121.0 81.0 Z M 120.0 60.0 L 120.0 71.0 L 121.0 72.0 L 202.0 72.0 L 203.0 71.0 L 203.0 60.0 L 202.0 59.0 L 121.0 59.0 Z M 120.0 34.0 L 120.0 46.0 L 185.0 46.0 L 186.0 45.0 L 186.0 34.0 L 185.0 33.0 L 184.0 33.0 L 183.0 34.0 L 124.0 34.0 L 123.0 33.0 L 121.0 33.0 Z M 120.0 10.0 L 120.0 22.0 L 163.0 22.0 L 163.0 10.0 L 162.0 9.0 L 121.0 9.0 Z" fill="#E60012" fill-rule="evenodd" clip-rule="evenodd"/>
    <path d="M 337.0 128.0 L 333.0 132.0 L 333.0 144.0 L 337.0 148.0 L 344.0 148.0 L 348.0 144.0 L 348.0 142.0 L 347.0 141.0 L 345.0 141.0 L 341.0 145.0 L 340.0 145.0 L 338.0 143.0 L 338.0 141.0 L 337.0 140.0 L 337.0 135.0 L 338.0 134.0 L 338.0 133.0 L 340.0 131.0 L 342.0 131.0 L 344.0 133.0 L 344.0 134.0 L 345.0 134.0 L 346.0 135.0 L 347.0 135.0 L 348.0 134.0 L 348.0 132.0 L 347.0 131.0 L 347.0 130.0 L 345.0 128.0 Z M 324.0 128.0 L 323.0 129.0 L 323.0 148.0 L 327.0 148.0 L 328.0 147.0 L 328.0 146.0 L 327.0 145.0 L 327.0 132.0 L 328.0 131.0 L 328.0 129.0 L 327.0 128.0 Z M 276.0 128.0 L 275.0 129.0 L 274.0 129.0 L 272.0 132.0 L 272.0 135.0 L 271.0 136.0 L 271.0 140.0 L 272.0 141.0 L 272.0 144.0 L 276.0 148.0 L 283.0 148.0 L 287.0 144.0 L 287.0 142.0 L 284.0 142.0 L 281.0 145.0 L 278.0 145.0 L 276.0 142.0 L 276.0 140.0 L 278.0 138.0 L 287.0 138.0 L 287.0 132.0 L 285.0 130.0 L 285.0 129.0 L 284.0 129.0 L 283.0 128.0 Z M 276.0 133.0 L 279.0 130.0 L 281.0 130.0 L 283.0 133.0 L 283.0 135.0 L 282.0 136.0 L 278.0 136.0 L 276.0 134.0 Z M 355.0 129.0 L 354.0 130.0 L 354.0 133.0 L 357.0 133.0 L 360.0 130.0 L 361.0 130.0 L 363.0 132.0 L 363.0 135.0 L 362.0 136.0 L 359.0 136.0 L 358.0 137.0 L 356.0 137.0 L 353.0 139.0 L 353.0 140.0 L 352.0 141.0 L 352.0 145.0 L 353.0 146.0 L 353.0 147.0 L 354.0 148.0 L 360.0 148.0 L 361.0 147.0 L 363.0 147.0 L 364.0 148.0 L 368.0 148.0 L 368.0 131.0 L 365.0 128.0 L 362.0 128.0 L 361.0 127.0 Z M 362.0 138.0 L 363.0 139.0 L 363.0 143.0 L 361.0 145.0 L 358.0 145.0 L 357.0 144.0 L 357.0 141.0 L 360.0 138.0 Z M 292.0 129.0 L 292.0 147.0 L 293.0 148.0 L 296.0 148.0 L 297.0 147.0 L 297.0 133.0 L 299.0 131.0 L 301.0 131.0 L 303.0 133.0 L 303.0 148.0 L 307.0 148.0 L 308.0 147.0 L 308.0 146.0 L 307.0 145.0 L 307.0 134.0 L 309.0 131.0 L 311.0 131.0 L 313.0 133.0 L 313.0 148.0 L 317.0 148.0 L 317.0 129.0 L 316.0 129.0 L 315.0 128.0 L 310.0 128.0 L 309.0 129.0 L 306.0 129.0 L 303.0 127.0 L 302.0 127.0 L 299.0 129.0 L 297.0 129.0 L 296.0 128.0 L 293.0 128.0 Z M 375.0 120.0 L 373.0 122.0 L 373.0 123.0 L 374.0 124.0 L 374.0 148.0 L 378.0 148.0 L 378.0 121.0 L 377.0 120.0 Z M 324.0 120.0 L 323.0 121.0 L 323.0 124.0 L 326.0 125.0 L 328.0 123.0 L 328.0 122.0 L 327.0 121.0 L 327.0 120.0 Z M 252.0 120.0 L 251.0 121.0 L 251.0 148.0 L 256.0 148.0 L 256.0 133.0 L 258.0 131.0 L 260.0 131.0 L 262.0 133.0 L 262.0 148.0 L 266.0 148.0 L 266.0 129.0 L 265.0 128.0 L 259.0 128.0 L 258.0 129.0 L 257.0 129.0 L 256.0 128.0 L 256.0 121.0 L 255.0 120.0 Z M 234.0 120.0 L 233.0 121.0 L 232.0 121.0 L 228.0 125.0 L 228.0 127.0 L 227.0 128.0 L 227.0 140.0 L 228.0 141.0 L 228.0 143.0 L 230.0 145.0 L 230.0 146.0 L 231.0 146.0 L 233.0 148.0 L 241.0 148.0 L 245.0 144.0 L 245.0 143.0 L 246.0 142.0 L 246.0 139.0 L 242.0 139.0 L 241.0 142.0 L 239.0 144.0 L 235.0 144.0 L 233.0 142.0 L 233.0 140.0 L 232.0 139.0 L 232.0 130.0 L 233.0 129.0 L 233.0 127.0 L 235.0 124.0 L 239.0 124.0 L 242.0 127.0 L 242.0 130.0 L 245.0 130.0 L 246.0 129.0 L 246.0 126.0 L 243.0 121.0 L 241.0 121.0 L 240.0 120.0 Z M 607.0 120.0 L 607.0 126.0 L 608.0 127.0 L 630.0 127.0 L 632.0 129.0 L 632.0 166.0 L 630.0 168.0 L 604.0 168.0 L 604.0 177.0 L 669.0 177.0 L 670.0 176.0 L 670.0 169.0 L 669.0 168.0 L 643.0 168.0 L 641.0 166.0 L 641.0 129.0 L 643.0 127.0 L 666.0 127.0 L 666.0 119.0 L 608.0 119.0 Z M 598.0 129.0 L 592.0 124.0 L 590.0 124.0 L 588.0 126.0 L 588.0 127.0 L 581.0 134.0 L 580.0 134.0 L 579.0 136.0 L 576.0 137.0 L 575.0 136.0 L 575.0 115.0 L 574.0 114.0 L 567.0 114.0 L 566.0 115.0 L 566.0 145.0 L 563.0 148.0 L 560.0 149.0 L 555.0 153.0 L 551.0 154.0 L 550.0 153.0 L 550.0 131.0 L 557.0 117.0 L 553.0 115.0 L 548.0 115.0 L 548.0 117.0 L 545.0 122.0 L 545.0 124.0 L 543.0 126.0 L 543.0 128.0 L 541.0 130.0 L 537.0 138.0 L 532.0 144.0 L 534.0 154.0 L 535.0 154.0 L 539.0 149.0 L 541.0 149.0 L 542.0 150.0 L 542.0 179.0 L 543.0 180.0 L 549.0 180.0 L 550.0 179.0 L 550.0 156.0 L 551.0 155.0 L 552.0 155.0 L 555.0 158.0 L 557.0 162.0 L 560.0 161.0 L 564.0 158.0 L 566.0 159.0 L 566.0 171.0 L 567.0 172.0 L 567.0 174.0 L 570.0 177.0 L 574.0 179.0 L 589.0 179.0 L 595.0 176.0 L 595.0 175.0 L 597.0 173.0 L 597.0 169.0 L 598.0 168.0 L 598.0 165.0 L 599.0 164.0 L 599.0 157.0 L 596.0 157.0 L 595.0 156.0 L 590.0 155.0 L 590.0 163.0 L 589.0 164.0 L 588.0 168.0 L 586.0 170.0 L 578.0 170.0 L 575.0 166.0 L 575.0 151.0 L 580.0 146.0 L 585.0 143.0 L 598.0 130.0 Z M 671.0 102.0 L 225.0 102.0 L 225.0 104.0 L 670.0 104.0 Z M 519.0 49.0 L 518.0 49.0 L 517.0 48.0 L 515.0 48.0 L 514.0 47.0 L 512.0 47.0 L 511.0 48.0 L 508.0 48.0 L 505.0 51.0 L 504.0 51.0 L 502.0 48.0 L 496.0 48.0 L 495.0 49.0 L 495.0 81.0 L 496.0 82.0 L 503.0 82.0 L 504.0 81.0 L 504.0 56.0 L 506.0 54.0 L 507.0 54.0 L 508.0 53.0 L 511.0 54.0 L 512.0 55.0 L 512.0 57.0 L 513.0 58.0 L 513.0 82.0 L 520.0 82.0 L 521.0 81.0 L 521.0 52.0 L 519.0 50.0 Z M 466.0 49.0 L 462.0 53.0 L 462.0 54.0 L 461.0 55.0 L 461.0 57.0 L 466.0 57.0 L 467.0 58.0 L 468.0 58.0 L 469.0 57.0 L 469.0 56.0 L 472.0 53.0 L 476.0 53.0 L 478.0 56.0 L 478.0 60.0 L 476.0 62.0 L 470.0 62.0 L 469.0 63.0 L 467.0 63.0 L 466.0 64.0 L 464.0 64.0 L 461.0 67.0 L 461.0 69.0 L 460.0 70.0 L 460.0 78.0 L 461.0 79.0 L 461.0 80.0 L 464.0 82.0 L 467.0 82.0 L 468.0 83.0 L 469.0 83.0 L 470.0 82.0 L 473.0 82.0 L 477.0 78.0 L 478.0 78.0 L 479.0 79.0 L 479.0 81.0 L 480.0 82.0 L 486.0 82.0 L 487.0 81.0 L 487.0 79.0 L 486.0 78.0 L 486.0 54.0 L 485.0 53.0 L 484.0 50.0 L 483.0 50.0 L 480.0 48.0 L 477.0 48.0 L 476.0 47.0 L 473.0 47.0 L 472.0 48.0 L 468.0 48.0 L 467.0 49.0 Z M 476.0 65.0 L 478.0 67.0 L 478.0 72.0 L 477.0 73.0 L 477.0 74.0 L 474.0 77.0 L 471.0 77.0 L 469.0 75.0 L 469.0 74.0 L 468.0 73.0 L 468.0 72.0 L 469.0 71.0 L 469.0 69.0 L 471.0 67.0 L 472.0 67.0 L 473.0 66.0 Z M 406.0 47.0 L 405.0 48.0 L 402.0 48.0 L 401.0 49.0 L 400.0 49.0 L 397.0 52.0 L 397.0 53.0 L 396.0 54.0 L 396.0 62.0 L 400.0 66.0 L 401.0 66.0 L 404.0 68.0 L 406.0 68.0 L 407.0 69.0 L 410.0 70.0 L 412.0 73.0 L 412.0 75.0 L 410.0 77.0 L 404.0 77.0 L 403.0 76.0 L 403.0 75.0 L 401.0 73.0 L 395.0 73.0 L 395.0 76.0 L 396.0 77.0 L 396.0 78.0 L 399.0 81.0 L 400.0 81.0 L 401.0 82.0 L 406.0 82.0 L 407.0 83.0 L 408.0 83.0 L 409.0 82.0 L 413.0 82.0 L 414.0 81.0 L 415.0 81.0 L 418.0 78.0 L 418.0 77.0 L 420.0 75.0 L 420.0 69.0 L 419.0 68.0 L 419.0 67.0 L 416.0 64.0 L 415.0 64.0 L 412.0 62.0 L 409.0 62.0 L 407.0 60.0 L 406.0 60.0 L 403.0 57.0 L 403.0 56.0 L 405.0 53.0 L 410.0 53.0 L 411.0 54.0 L 411.0 55.0 L 413.0 57.0 L 415.0 57.0 L 418.0 55.0 L 418.0 53.0 L 413.0 48.0 L 410.0 48.0 L 409.0 47.0 Z M 353.0 49.0 L 352.0 49.0 L 351.0 48.0 L 349.0 48.0 L 348.0 47.0 L 346.0 47.0 L 345.0 48.0 L 342.0 48.0 L 340.0 50.0 L 338.0 50.0 L 337.0 49.0 L 337.0 48.0 L 330.0 48.0 L 329.0 49.0 L 329.0 81.0 L 330.0 82.0 L 337.0 82.0 L 338.0 81.0 L 338.0 57.0 L 342.0 53.0 L 345.0 54.0 L 347.0 57.0 L 347.0 82.0 L 355.0 82.0 L 355.0 52.0 L 353.0 50.0 Z M 310.0 47.0 L 307.0 47.0 L 306.0 48.0 L 302.0 48.0 L 297.0 53.0 L 297.0 54.0 L 295.0 57.0 L 295.0 73.0 L 296.0 74.0 L 297.0 77.0 L 299.0 79.0 L 299.0 80.0 L 300.0 80.0 L 303.0 82.0 L 306.0 82.0 L 307.0 83.0 L 308.0 83.0 L 309.0 82.0 L 315.0 82.0 L 320.0 77.0 L 320.0 76.0 L 321.0 75.0 L 321.0 71.0 L 322.0 70.0 L 322.0 60.0 L 321.0 59.0 L 321.0 55.0 L 320.0 54.0 L 320.0 53.0 L 316.0 49.0 L 315.0 49.0 L 314.0 48.0 L 311.0 48.0 Z M 307.0 53.0 L 310.0 53.0 L 312.0 55.0 L 312.0 57.0 L 313.0 58.0 L 313.0 72.0 L 312.0 73.0 L 312.0 75.0 L 310.0 77.0 L 307.0 77.0 L 304.0 74.0 L 304.0 56.0 Z M 392.0 42.0 L 388.0 42.0 L 387.0 43.0 L 386.0 43.0 L 386.0 44.0 L 385.0 45.0 L 385.0 47.0 L 384.0 48.0 L 378.0 48.0 L 377.0 47.0 L 375.0 47.0 L 374.0 48.0 L 370.0 48.0 L 369.0 49.0 L 368.0 49.0 L 364.0 53.0 L 364.0 61.0 L 365.0 62.0 L 365.0 63.0 L 368.0 66.0 L 368.0 67.0 L 367.0 68.0 L 366.0 68.0 L 364.0 70.0 L 364.0 71.0 L 363.0 72.0 L 363.0 76.0 L 364.0 77.0 L 364.0 78.0 L 365.0 78.0 L 366.0 79.0 L 366.0 81.0 L 365.0 82.0 L 364.0 82.0 L 362.0 84.0 L 362.0 90.0 L 365.0 93.0 L 368.0 93.0 L 369.0 94.0 L 374.0 94.0 L 375.0 95.0 L 376.0 95.0 L 377.0 94.0 L 382.0 94.0 L 383.0 93.0 L 386.0 93.0 L 387.0 92.0 L 388.0 92.0 L 391.0 89.0 L 391.0 87.0 L 392.0 86.0 L 392.0 81.0 L 391.0 80.0 L 391.0 78.0 L 389.0 76.0 L 388.0 76.0 L 387.0 75.0 L 383.0 75.0 L 382.0 74.0 L 376.0 74.0 L 375.0 73.0 L 371.0 73.0 L 370.0 72.0 L 370.0 69.0 L 373.0 67.0 L 374.0 67.0 L 375.0 68.0 L 380.0 68.0 L 381.0 67.0 L 383.0 67.0 L 384.0 66.0 L 385.0 66.0 L 388.0 63.0 L 388.0 62.0 L 389.0 61.0 L 389.0 54.0 L 387.0 52.0 L 387.0 50.0 L 390.0 47.0 L 393.0 47.0 L 393.0 43.0 Z M 369.0 83.0 L 371.0 81.0 L 372.0 81.0 L 373.0 80.0 L 374.0 80.0 L 375.0 81.0 L 381.0 81.0 L 382.0 82.0 L 383.0 82.0 L 385.0 84.0 L 385.0 86.0 L 382.0 89.0 L 381.0 89.0 L 380.0 90.0 L 374.0 90.0 L 373.0 89.0 L 371.0 89.0 L 369.0 87.0 Z M 376.0 51.0 L 377.0 51.0 L 380.0 54.0 L 380.0 55.0 L 381.0 56.0 L 381.0 59.0 L 380.0 60.0 L 380.0 61.0 L 377.0 64.0 L 375.0 64.0 L 373.0 62.0 L 373.0 61.0 L 372.0 60.0 L 372.0 56.0 L 373.0 55.0 L 373.0 54.0 Z M 427.0 36.0 L 426.0 37.0 L 426.0 81.0 L 427.0 82.0 L 435.0 82.0 L 435.0 57.0 L 439.0 53.0 L 440.0 53.0 L 441.0 54.0 L 442.0 54.0 L 444.0 57.0 L 444.0 82.0 L 452.0 82.0 L 452.0 52.0 L 450.0 50.0 L 450.0 49.0 L 449.0 48.0 L 446.0 48.0 L 445.0 47.0 L 443.0 47.0 L 442.0 48.0 L 439.0 48.0 L 437.0 50.0 L 436.0 50.0 L 435.0 49.0 L 435.0 36.0 Z M 262.0 36.0 L 262.0 82.0 L 269.0 82.0 L 270.0 81.0 L 270.0 58.0 L 271.0 57.0 L 271.0 56.0 L 273.0 54.0 L 274.0 54.0 L 275.0 53.0 L 276.0 53.0 L 279.0 56.0 L 279.0 57.0 L 280.0 58.0 L 280.0 82.0 L 288.0 82.0 L 288.0 54.0 L 287.0 53.0 L 287.0 51.0 L 284.0 48.0 L 282.0 48.0 L 281.0 47.0 L 279.0 47.0 L 278.0 48.0 L 275.0 48.0 L 273.0 50.0 L 271.0 50.0 L 270.0 49.0 L 270.0 36.0 Z M 227.0 36.0 L 227.0 43.0 L 243.0 43.0 L 244.0 44.0 L 244.0 46.0 L 242.0 48.0 L 242.0 49.0 L 238.0 54.0 L 238.0 55.0 L 237.0 56.0 L 237.0 57.0 L 235.0 59.0 L 234.0 62.0 L 232.0 64.0 L 232.0 65.0 L 228.0 70.0 L 227.0 73.0 L 225.0 75.0 L 225.0 82.0 L 256.0 82.0 L 256.0 78.0 L 257.0 77.0 L 257.0 76.0 L 256.0 75.0 L 238.0 75.0 L 237.0 74.0 L 237.0 72.0 L 239.0 70.0 L 240.0 67.0 L 242.0 65.0 L 242.0 64.0 L 244.0 62.0 L 245.0 59.0 L 249.0 54.0 L 250.0 51.0 L 252.0 49.0 L 252.0 48.0 L 256.0 43.0 L 256.0 36.0 Z M 607.0 40.0 L 607.0 85.0 L 608.0 86.0 L 655.0 86.0 L 657.0 88.0 L 657.0 91.0 L 658.0 92.0 L 664.0 92.0 L 666.0 91.0 L 666.0 39.0 L 657.0 39.0 L 657.0 77.0 L 656.0 78.0 L 642.0 78.0 L 641.0 77.0 L 641.0 26.0 L 632.0 26.0 L 632.0 77.0 L 631.0 78.0 L 617.0 78.0 L 616.0 77.0 L 616.0 39.0 L 608.0 39.0 Z M 562.0 25.0 L 561.0 26.0 L 561.0 36.0 L 560.0 37.0 L 536.0 37.0 L 535.0 38.0 L 535.0 74.0 L 544.0 74.0 L 544.0 71.0 L 545.0 70.0 L 560.0 70.0 L 561.0 71.0 L 561.0 91.0 L 562.0 92.0 L 570.0 92.0 L 570.0 72.0 L 572.0 70.0 L 586.0 70.0 L 587.0 71.0 L 587.0 74.0 L 596.0 74.0 L 596.0 37.0 L 571.0 37.0 L 570.0 36.0 L 570.0 25.0 Z M 570.0 47.0 L 571.0 46.0 L 586.0 46.0 L 587.0 47.0 L 587.0 60.0 L 585.0 62.0 L 572.0 62.0 L 570.0 60.0 Z M 545.0 46.0 L 547.0 46.0 L 548.0 45.0 L 552.0 45.0 L 553.0 46.0 L 556.0 46.0 L 557.0 45.0 L 558.0 45.0 L 559.0 46.0 L 560.0 46.0 L 561.0 47.0 L 561.0 60.0 L 559.0 62.0 L 546.0 62.0 L 544.0 60.0 L 544.0 47.0 Z" fill="#050505" fill-rule="evenodd" clip-rule="evenodd"/>
  </g>
</svg>
