<svg xmlns="http://www.w3.org/2000/svg" viewBox="0 0 672 198" width="672" height="198">
  <title>Zhongshan Chemical logo</title>
  <g shape-rendering="geometricPrecision">
    <path d="M 82 9 L 67 14 L 47 25 L 39 31 L 27 43 L 18 55 L 9 76 L 9 80 L 7 84 L 7 91 L 6 92 L 7 117 L 9 121 L 9 124 L 12 133 L 18 145 L 30 161 L 46 175 L 57 182 L 63 184 L 65 186 L 68 186 L 71 188 L 83 192 L 88 192 L 93 194 L 102 194 L 103 195 L 130 194 L 135 192 L 143 191 L 149 188 L 152 188 L 155 186 L 157 186 L 159 184 L 161 184 L 172 178 L 183 170 L 199 153 L 205 144 L 211 132 L 213 123 L 215 119 L 217 103 L 216 102 L 112 102 L 110 100 L 110 6 L 92 7 L 87 9 Z" fill="#008A3D"/>
<path d="M 119 80 L 119 91 L 120 92 L 214 92 L 215 91 L 215 80 Z" fill="#E60012"/>
<path d="M 119 58 L 119 69 L 120 70 L 201 70 L 202 69 L 202 58 L 201 57 L 120 57 Z" fill="#E60012"/>
<path d="M 119 32 L 119 43 L 120 44 L 184 44 L 185 43 L 185 32 Z" fill="#E60012"/>
<path d="M 162 8 L 161 7 L 159 8 L 119 8 L 119 20 L 161 20 L 162 19 Z" fill="#E60012"/>
<path d="M 354 127 L 353 131 L 356 131 L 358 128 L 361 128 L 363 132 L 361 134 L 358 134 L 355 136 L 353 136 L 351 140 L 351 143 L 354 146 L 359 146 L 361 144 L 362 144 L 363 146 L 367 146 L 367 130 L 366 128 L 364 126 L 356 126 Z" fill="#050505"/>
<path d="M 336 126 L 332 131 L 332 141 L 336 146 L 343 146 L 346 143 L 347 140 L 344 139 L 341 143 L 339 143 L 336 139 L 336 132 L 338 129 L 341 129 L 343 131 L 343 132 L 346 132 L 346 128 L 344 126 Z" fill="#050505"/>
<path d="M 323 126 L 322 127 L 322 145 L 323 146 L 326 146 L 326 127 L 325 126 Z" fill="#050505"/>
<path d="M 292 126 L 292 146 L 295 146 L 296 145 L 295 143 L 295 133 L 298 129 L 300 129 L 302 131 L 302 146 L 306 146 L 306 131 L 308 129 L 310 129 L 312 131 L 312 146 L 316 146 L 316 128 L 314 126 L 309 126 L 307 128 L 306 128 L 304 126 L 299 126 L 298 127 Z" fill="#050505"/>
<path d="M 275 126 L 271 130 L 271 134 L 270 135 L 271 141 L 275 146 L 282 146 L 285 143 L 285 140 L 283 140 L 279 144 L 278 144 L 275 141 L 275 137 L 276 136 L 286 136 L 286 131 L 282 126 Z" fill="#050505"/>
<path d="M 373 119 L 373 146 L 377 146 L 377 119 Z" fill="#050505"/>
<path d="M 251 119 L 250 120 L 250 145 L 251 146 L 255 146 L 255 131 L 257 129 L 260 129 L 261 130 L 261 146 L 265 146 L 265 127 L 264 126 L 258 126 L 256 127 L 255 126 L 255 119 Z" fill="#050505"/>
<path d="M 323 118 L 322 119 L 322 121 L 323 122 L 326 122 L 326 119 L 325 118 Z" fill="#050505"/>
<path d="M 234 118 L 233 119 L 231 119 L 227 124 L 227 126 L 226 127 L 226 138 L 228 142 L 232 146 L 240 146 L 244 142 L 245 140 L 245 137 L 241 137 L 241 139 L 237 143 L 234 142 L 231 138 L 231 127 L 232 126 L 232 124 L 236 121 L 237 121 L 241 125 L 241 127 L 245 127 L 245 125 L 244 124 L 244 122 L 241 119 L 239 119 L 238 118 Z" fill="#050505"/>
<path d="M 607 117 L 607 125 L 629 125 L 631 127 L 631 165 L 630 166 L 604 166 L 603 167 L 603 174 L 604 175 L 667 175 L 668 174 L 668 167 L 667 166 L 641 166 L 640 165 L 640 127 L 642 125 L 665 125 L 665 118 L 664 117 Z" fill="#050505"/>
<path d="M 565 113 L 565 143 L 561 147 L 553 151 L 552 152 L 552 154 L 556 159 L 558 159 L 562 156 L 564 156 L 565 157 L 565 168 L 566 169 L 567 173 L 569 175 L 573 176 L 574 177 L 587 177 L 588 176 L 590 176 L 592 175 L 596 171 L 596 166 L 597 165 L 597 162 L 598 161 L 598 156 L 597 155 L 594 155 L 590 153 L 589 154 L 589 162 L 588 163 L 587 167 L 586 168 L 583 168 L 582 169 L 576 168 L 574 165 L 574 149 L 579 144 L 580 144 L 585 139 L 586 139 L 596 129 L 596 126 L 595 126 L 591 122 L 590 122 L 577 135 L 575 135 L 574 134 L 574 113 Z" fill="#050505"/>
<path d="M 551 113 L 548 113 L 547 114 L 546 118 L 542 126 L 540 128 L 540 130 L 531 142 L 532 144 L 532 148 L 533 149 L 533 151 L 535 151 L 535 150 L 539 146 L 541 147 L 541 177 L 548 177 L 549 176 L 549 129 L 554 120 L 554 118 L 556 116 L 556 115 L 552 114 Z" fill="#050505"/>
<path d="M 224 100 L 225 102 L 669 102 L 669 100 Z" fill="#050505"/>
<path d="M 495 46 L 494 47 L 494 79 L 495 80 L 502 80 L 502 57 L 503 56 L 503 54 L 506 51 L 508 51 L 510 52 L 512 55 L 512 79 L 513 80 L 519 80 L 520 79 L 520 51 L 519 49 L 516 46 L 508 46 L 504 49 L 503 49 L 501 46 Z" fill="#050505"/>
<path d="M 464 48 L 460 53 L 460 55 L 468 55 L 469 52 L 473 50 L 477 53 L 477 58 L 475 60 L 469 60 L 466 62 L 464 62 L 460 66 L 459 68 L 459 75 L 460 77 L 463 80 L 471 80 L 476 76 L 477 76 L 479 80 L 485 80 L 485 52 L 484 50 L 479 46 L 468 46 Z" fill="#050505"/>
<path d="M 402 46 L 398 48 L 395 52 L 395 59 L 399 64 L 403 66 L 406 66 L 408 68 L 409 68 L 411 70 L 411 73 L 407 76 L 403 75 L 400 71 L 394 71 L 394 73 L 395 74 L 395 76 L 400 80 L 412 80 L 417 76 L 419 72 L 419 68 L 417 64 L 415 62 L 413 62 L 405 58 L 402 55 L 402 53 L 404 51 L 407 50 L 409 51 L 411 53 L 411 54 L 414 55 L 417 53 L 417 51 L 413 47 L 411 46 Z" fill="#050505"/>
<path d="M 329 46 L 328 47 L 328 57 L 329 58 L 328 60 L 328 65 L 329 66 L 328 68 L 328 79 L 329 80 L 336 80 L 337 79 L 337 54 L 339 52 L 343 51 L 346 54 L 346 80 L 353 80 L 354 79 L 354 50 L 352 48 L 352 47 L 350 46 L 342 46 L 340 47 L 339 49 L 337 49 L 335 46 Z" fill="#050505"/>
<path d="M 302 46 L 300 47 L 296 51 L 295 53 L 295 55 L 294 56 L 294 70 L 296 73 L 296 75 L 300 79 L 302 80 L 313 80 L 318 76 L 320 72 L 320 68 L 321 67 L 321 59 L 320 58 L 320 54 L 318 50 L 315 47 L 313 47 L 312 46 Z" fill="#050505"/>
<path d="M 390 40 L 386 41 L 384 43 L 384 45 L 382 47 L 380 46 L 370 46 L 369 47 L 367 47 L 364 50 L 363 52 L 363 59 L 367 64 L 367 65 L 365 67 L 364 67 L 362 70 L 362 74 L 365 77 L 365 79 L 361 82 L 361 88 L 363 90 L 365 91 L 368 91 L 369 92 L 380 92 L 381 91 L 385 91 L 390 87 L 391 80 L 390 79 L 390 77 L 386 73 L 373 72 L 372 71 L 370 71 L 368 69 L 368 68 L 371 65 L 377 66 L 378 65 L 384 64 L 386 62 L 386 61 L 388 59 L 388 53 L 386 50 L 386 47 L 388 45 L 391 45 L 391 41 Z" fill="#050505"/>
<path d="M 426 34 L 426 80 L 433 80 L 434 79 L 434 54 L 438 51 L 440 51 L 443 54 L 443 79 L 444 80 L 450 80 L 451 79 L 451 50 L 449 48 L 449 47 L 447 46 L 439 46 L 437 47 L 436 49 L 435 49 L 434 48 L 434 34 Z" fill="#050505"/>
<path d="M 261 34 L 261 79 L 262 80 L 268 80 L 269 79 L 269 55 L 273 51 L 275 51 L 279 55 L 279 79 L 280 80 L 286 80 L 287 79 L 287 53 L 286 52 L 286 49 L 282 46 L 275 46 L 272 48 L 270 48 L 269 47 L 269 34 Z" fill="#050505"/>
<path d="M 226 34 L 226 40 L 242 40 L 243 41 L 243 44 L 238 51 L 237 54 L 231 62 L 230 65 L 224 73 L 224 79 L 225 80 L 254 80 L 255 79 L 255 73 L 237 73 L 236 72 L 236 70 L 238 68 L 238 66 L 244 58 L 245 55 L 255 41 L 255 34 Z" fill="#050505"/>
<path d="M 606 38 L 607 40 L 607 84 L 655 84 L 656 85 L 656 89 L 664 89 L 665 88 L 665 38 L 664 37 L 656 37 L 656 75 L 654 77 L 643 77 L 640 75 L 640 24 L 631 24 L 631 75 L 629 77 L 617 77 L 615 75 L 615 37 L 607 37 Z" fill="#050505"/>
<path d="M 562 23 L 560 25 L 561 27 L 561 33 L 559 35 L 535 35 L 534 36 L 534 72 L 542 72 L 544 68 L 559 68 L 561 70 L 561 89 L 562 90 L 568 90 L 569 89 L 569 69 L 570 68 L 585 68 L 587 72 L 595 72 L 595 36 L 594 35 L 570 35 L 569 34 L 569 24 L 568 23 Z" fill="#050505"/>
  </g>
</svg>